<svg width="29" height="29" viewBox="0 0 29 29" fill="none" xmlns="http://www.w3.org/2000/svg">
<path d="M22.0086 10.9934C22.4762 11.4695 22.469 12.2344 21.9917 12.702L16.6436 17.9522C15.6975 18.8802 14.4795 19.343 13.2603 19.343C12.0543 19.343 10.8484 18.8887 9.90592 17.9788L7.61129 15.7228C7.13521 15.2552 7.12917 14.4903 7.59679 14.0142C8.06321 13.537 8.8305 13.5309 9.30538 13.9998L11.5928 16.2485C12.5304 17.1547 14.0106 17.1499 14.9531 16.2267L20.3 10.9777C20.7749 10.5089 21.5373 10.5173 22.0086 10.9934ZM29 14.5C29 22.4955 22.4955 29 14.5 29C6.50446 29 0 22.4955 0 14.5C0 6.50446 6.50446 0 14.5 0C22.4955 0 29 6.50446 29 14.5ZM26.5833 14.5C26.5833 7.83725 21.1628 2.41667 14.5 2.41667C7.83725 2.41667 2.41667 7.83725 2.41667 14.5C2.41667 21.1628 7.83725 26.5833 14.5 26.5833C21.1628 26.5833 26.5833 21.1628 26.5833 14.5Z" fill="white"/>
</svg>
