<svg width="46" height="46" viewBox="0 0 46 46" fill="none" xmlns="http://www.w3.org/2000/svg">
<path d="M23.6775 29.8317L20.9004 17.8521L20.9002 17.8511C20.79 17.3744 20.5681 16.9803 20.291 16.7028L20.5479 17.8113L22.4446 25.9947L22.8708 27.8333H20.9833H16.8117H14.9242L15.3504 25.9947L17.2454 17.8188C17.2458 17.817 17.2462 17.8152 17.2466 17.8134C17.4251 17.0366 18.1157 16.5 18.8967 16.5C19.1423 16.5 19.3789 16.5531 19.5935 16.65H20.2361C20.0941 16.5189 19.9391 16.4175 19.7784 16.35L23.6775 29.8317ZM23.6775 29.8317H23.3352L23.2179 29.326L21.7567 29.4933V28.1667H16.04H14.8482L14.5788 29.3277L14.4615 29.8333H14.1193L16.9245 17.7357C16.9245 17.7356 16.9245 17.7356 16.9246 17.7355C17.1984 16.5559 18.4705 15.8019 19.7781 16.3499L23.6775 29.8317ZM43 16.1667H44.5V14.6667V11.3333V9.83333H43H40.9921C40.4276 7.45102 38.549 5.57237 36.1667 5.00787V3V1.5H34.6667H31.3333H29.8333V3V4.83333H29.5V3V1.5H28H24.6667H23.1667V3V4.83333H22.8333V3V1.5H21.3333H18H16.5V3V4.83333H16.1667V3V1.5H14.6667H11.3333H9.83333V3V5.00787C7.45102 5.57237 5.57237 7.45102 5.00787 9.83333H3H1.5V11.3333V14.6667V16.1667H3H4.83333V16.5H3H1.5V18V21.3333V22.8333H3H4.83333V23.1667H3H1.5V24.6667V28V29.5H3H4.83333V29.8333H3H1.5V31.3333V34.6667V36.1667H3H4.83333V39.6667V41.1667H6.33333H9.83333V43V44.5H11.3333H14.6667H16.1667V43V41.1667H16.5V43V44.5H18H21.3333H22.8333V43V41.1667H23.1667V43V44.5H24.6667H28H29.5V43V41.1667H29.8333V43V44.5H31.3333H34.6667H36.1667V43V41.1667H39.6667H41.1667V39.6667V36.1667H43H44.5V34.6667V31.3333V29.8333H43H41.1667V29.5H43H44.5V28V24.6667V23.1667H43H41.1667V22.8333H43H44.5V21.3333V18V16.5H43H41.1667V16.1667H43ZM29.5 16.1667H29.8333V29.8333H29.5V16.1667Z" fill="#4F70CF" stroke="#BCEDFF" stroke-width="3"/>
</svg>
