<svg width="46" height="46" viewBox="0 0 46 46" fill="none" xmlns="http://www.w3.org/2000/svg">
<path d="M29.666 28.2572L30.4173 28.6919C31.7086 29.4392 33.1741 29.8329 34.666 29.8335H34.6663M29.666 28.2572L34.6665 29.8335C34.6665 29.8335 34.6664 29.8335 34.6663 29.8335M29.666 28.2572L28.9147 28.6919C27.6234 29.4392 26.158 29.8329 24.666 29.8335C24.6658 29.8335 24.6657 29.8335 24.6655 29.8335L21.3337 29.8335C19.8423 29.8315 18.3784 29.4322 17.0924 28.6769L16.3326 28.2305L15.5728 28.6769C14.287 29.4324 12.8231 29.8316 11.3318 29.8335H9.66627C9.66619 29.8335 9.6661 29.8335 9.66602 29.8335C8.17475 29.833 6.71043 29.4361 5.42295 28.6835L3.16602 27.3644V29.9785V38.0002C3.16602 39.7241 3.85083 41.3774 5.06982 42.5964C6.28881 43.8154 7.94211 44.5002 9.66602 44.5002H36.3327C38.0566 44.5002 39.7099 43.8154 40.9289 42.5964C42.1479 41.3774 42.8327 39.7241 42.8327 38.0002V29.9802V27.3683L40.5767 28.6846C39.2886 29.4363 37.8241 29.8327 36.3327 29.8335C36.3326 29.8335 36.3325 29.8335 36.3323 29.8335M29.666 28.2572L36.3323 29.8335M34.6663 29.8335H36.3323M34.6663 29.8335H36.3323" fill="#4F70CF" stroke="#BCEDFF" stroke-width="3"/>
<path d="M1.5 21.3185L1.50029 21.3038L1.53635 19.4752C1.54094 19.2427 1.56868 19.0113 1.61916 18.7843L4.85418 4.24008C5.2103 2.63902 6.6305 1.5 8.27069 1.5H12.6667C14.5997 1.5 16.1667 3.067 16.1667 5V11.3333C16.1667 11.4254 16.2413 11.5 16.3333 11.5C16.4254 11.5 16.5 11.4254 16.5 11.3333V5C16.5 3.067 18.067 1.5 20 1.5H26C27.933 1.5 29.5 3.067 29.5 5V11.3333C29.5 11.4254 29.5746 11.5 29.6667 11.5C29.7587 11.5 29.8333 11.4254 29.8333 11.3333V5C29.8333 3.067 31.4003 1.5 33.3333 1.5H37.7255C39.3687 1.5 40.7907 2.64314 41.1438 4.24798L44.4183 19.1321L42.9533 19.4543L44.4183 19.1321C44.4726 19.379 44.5 19.6312 44.5 19.8841V21.3333C44.5 23.4993 43.6396 25.5765 42.108 27.108C40.5765 28.6396 38.4993 29.5 36.3333 29.5H34.6675H34.6667V28C33.7203 28.0005 32.7847 27.799 31.9225 27.409C31.7548 27.3331 31.5906 27.2505 31.4303 27.1613C30.3755 26.5745 28.9579 26.5745 27.903 27.1613C27.7428 27.2505 27.5786 27.3331 27.4108 27.409C26.5486 27.799 25.613 28.0005 24.6667 28L1.5 21.3185ZM1.5 21.3185V21.3333C1.5 23.4993 2.36041 25.5765 3.89196 27.108C5.42351 28.6396 7.50073 29.5 9.66667 29.5L11.3333 29.5L11.3382 29.5C12.503 29.4962 13.6535 29.242 14.7115 28.7547C14.903 28.6665 15.0906 28.571 15.274 28.4685C15.8874 28.1259 16.7793 28.1259 17.3926 28.4685C17.576 28.571 17.7637 28.6665 17.9552 28.7547C19.0132 29.242 20.1636 29.4962 21.3285 29.5H21.3333H24.6659L1.5 21.3185Z" fill="#4F70CF" stroke="#BCEDFF" stroke-width="3"/>
</svg>
