<svg width="30" height="30" viewBox="0 0 30 30" fill="none" xmlns="http://www.w3.org/2000/svg">
<g clip-path="url(#clip0_107_4571)">
<path d="M23.75 3.75H6.25C4.59301 3.75198 3.00445 4.4111 1.83277 5.58277C0.661102 6.75445 0.00198482 8.34301 0 10H30C29.998 8.34301 29.3389 6.75445 28.1672 5.58277C26.9956 4.4111 25.407 3.75198 23.75 3.75Z" fill="white"/>
<path d="M0 20C0.00198482 21.657 0.661102 23.2456 1.83277 24.4172C3.00445 25.5889 4.59301 26.248 6.25 26.25H23.75C25.407 26.248 26.9956 25.5889 28.1672 24.4172C29.3389 23.2456 29.998 21.657 30 20V12.5H0V20ZM8.75 19.375C8.75 19.7458 8.64003 20.1084 8.43401 20.4167C8.22798 20.725 7.93514 20.9654 7.59253 21.1073C7.24992 21.2492 6.87292 21.2863 6.50921 21.214C6.14549 21.1416 5.8114 20.963 5.54917 20.7008C5.28695 20.4386 5.10837 20.1045 5.03603 19.7408C4.96368 19.3771 5.00081 19.0001 5.14273 18.6575C5.28464 18.3149 5.52496 18.022 5.83331 17.816C6.14165 17.61 6.50416 17.5 6.875 17.5C7.37228 17.5 7.84919 17.6975 8.20083 18.0492C8.55246 18.4008 8.75 18.8777 8.75 19.375Z" fill="white"/>
</g>
<defs>
<clipPath id="clip0_107_4571">
<rect width="30" height="30" fill="white"/>
</clipPath>
</defs>
</svg>
