<svg width="25" height="25" viewBox="0 0 25 25" fill="none" xmlns="http://www.w3.org/2000/svg">
<path d="M15.625 20.8333H5.20833C3.82751 20.8317 2.50371 20.2824 1.52731 19.306C0.550919 18.3296 0.00165402 17.0058 0 15.625L0 5.20833C0.00165402 3.82751 0.550919 2.50371 1.52731 1.52731C2.50371 0.550919 3.82751 0.00165402 5.20833 0L15.625 0C17.0058 0.00165402 18.3296 0.550919 19.306 1.52731C20.2824 2.50371 20.8317 3.82751 20.8333 5.20833V15.625C20.8317 17.0058 20.2824 18.3296 19.306 19.306C18.3296 20.2824 17.0058 20.8317 15.625 20.8333ZM5.20833 2.08333C4.37953 2.08333 3.58468 2.41257 2.99862 2.99862C2.41257 3.58468 2.08333 4.37953 2.08333 5.20833V15.625C2.08333 16.4538 2.41257 17.2487 2.99862 17.8347C3.58468 18.4208 4.37953 18.75 5.20833 18.75H15.625C16.4538 18.75 17.2487 18.4208 17.8347 17.8347C18.4208 17.2487 18.75 16.4538 18.75 15.625V5.20833C18.75 4.37953 18.4208 3.58468 17.8347 2.99862C17.2487 2.41257 16.4538 2.08333 15.625 2.08333H5.20833ZM25 19.7917V6.25C25 5.97373 24.8903 5.70878 24.6949 5.51343C24.4996 5.31808 24.2346 5.20833 23.9583 5.20833C23.6821 5.20833 23.4171 5.31808 23.2218 5.51343C23.0264 5.70878 22.9167 5.97373 22.9167 6.25V19.7917C22.9167 20.6205 22.5874 21.4153 22.0014 22.0014C21.4153 22.5874 20.6205 22.9167 19.7917 22.9167H6.25C5.97373 22.9167 5.70878 23.0264 5.51343 23.2218C5.31808 23.4171 5.20833 23.6821 5.20833 23.9583C5.20833 24.2346 5.31808 24.4996 5.51343 24.6949C5.70878 24.8903 5.97373 25 6.25 25H19.7917C21.1725 24.9983 22.4963 24.4491 23.4727 23.4727C24.4491 22.4963 24.9983 21.1725 25 19.7917Z" fill="white"/>
</svg>
