<svg width="478" height="428" viewBox="0 0 478 428" fill="none" xmlns="http://www.w3.org/2000/svg">
<path d="M160.596 234.565L154.563 228.498C152.986 226.909 151.11 225.648 149.044 224.788C146.977 223.927 144.761 223.484 142.522 223.484C140.284 223.484 138.067 223.927 136.001 224.788C133.934 225.648 132.059 226.909 130.482 228.498L94.3088 264.824C91.1036 268.055 89.3049 272.421 89.3049 276.972C89.3049 281.522 91.1036 285.889 94.3088 289.119L100.333 295.169C101.91 296.757 103.785 298.018 105.85 298.879C107.916 299.739 110.132 300.182 112.37 300.182C114.607 300.182 116.823 299.739 118.889 298.879C120.955 298.018 122.83 296.757 124.406 295.169L160.587 258.843C163.791 255.615 165.589 251.253 165.59 246.706C165.592 242.158 163.797 237.795 160.596 234.565ZM184.754 379.956C187.987 383.057 192.293 384.788 196.773 384.788C201.252 384.788 205.559 383.057 208.792 379.956V379.913L244.973 343.63L245.025 343.587C248.221 340.362 250.014 336.006 250.014 331.465C250.014 326.925 248.221 322.569 245.025 319.344L239 313.277C235.763 310.167 231.448 308.431 226.96 308.431C222.471 308.431 218.156 310.167 214.919 313.277L178.746 349.603C175.538 352.828 173.737 357.192 173.737 361.742C173.737 366.291 175.538 370.655 178.746 373.88L184.754 379.956ZM226.977 422.324C228.552 423.91 230.426 425.169 232.491 426.028C234.555 426.887 236.769 427.329 239.004 427.329C241.24 427.329 243.454 426.887 245.518 426.028C247.582 425.169 249.456 423.91 251.032 422.324L287.188 386.006C290.393 382.783 292.192 378.422 292.192 373.876C292.192 369.33 290.393 364.969 287.188 361.746L281.214 355.636C278.009 352.448 273.669 350.662 269.148 350.67C266.929 350.667 264.731 351.103 262.681 351.952C260.631 352.802 258.769 354.048 257.202 355.619L221.029 391.937C217.833 395.162 216.04 399.518 216.04 404.059C216.04 408.599 217.833 412.955 221.029 416.18L226.977 422.324ZM154.58 342.58C156.821 342.586 159.04 342.145 161.109 341.283C163.178 340.422 165.054 339.157 166.629 337.563L202.802 301.245C206.007 298.014 207.806 293.648 207.806 289.097C207.806 284.547 206.007 280.181 202.802 276.95L196.777 270.883C195.198 269.297 193.321 268.039 191.254 267.18C189.187 266.321 186.971 265.879 184.732 265.879C182.494 265.879 180.278 266.321 178.211 267.18C176.144 268.039 174.267 269.297 172.688 270.883L136.515 307.218C133.309 310.448 131.511 314.815 131.511 319.365C131.511 323.916 133.309 328.282 136.515 331.512L142.548 337.563C144.121 339.155 145.994 340.418 148.06 341.28C150.125 342.141 152.342 342.583 154.58 342.58Z" fill="white"/>
<path d="M287.256 168.014L383.734 264.901C386.968 268.014 391.282 269.753 395.77 269.753C400.259 269.753 404.573 268.014 407.806 264.901L413.839 258.843C417.046 255.616 418.845 251.252 418.845 246.704C418.845 242.155 417.046 237.792 413.839 234.565L281.18 101.36C279.569 99.8001 277.415 98.9279 275.173 98.9279C272.931 98.9279 270.776 99.8001 269.165 101.36L202.844 167.92C198.099 172.688 192.458 176.471 186.246 179.053C180.034 181.635 173.373 182.964 166.646 182.964C159.919 182.964 153.258 181.635 147.046 179.053C140.834 176.471 135.193 172.688 130.447 167.92C125.661 163.099 122.974 156.58 122.974 149.787C122.974 142.993 125.661 136.474 130.447 131.653L226.661 35.0644C200.736 11.9484 166.933 -0.344748 132.215 0.717313C97.4972 1.77937 64.5088 16.1158 40.0453 40.7732C14.4765 66.5489 0.129272 101.384 0.129272 137.691C0.129272 173.997 14.4765 208.832 40.0453 234.608L73.5216 268.229C74.9961 262.399 77.9941 257.066 82.2085 252.775L118.381 216.449C121.545 213.268 125.307 210.743 129.45 209.021C133.593 207.298 138.035 206.411 142.522 206.411C147.009 206.411 151.451 207.298 155.594 209.021C159.737 210.743 163.499 213.268 166.663 216.449L172.687 222.516C176.151 226.019 178.814 230.232 180.49 234.864C182.167 239.496 182.818 244.437 182.398 249.345C187.229 248.958 192.086 249.605 196.647 251.241C201.208 252.877 205.369 255.465 208.852 258.834L214.885 264.901C218.308 268.368 220.948 272.528 222.627 277.102C224.305 281.676 224.982 286.556 224.613 291.414C225.389 291.363 226.14 291.192 226.925 291.192C231.413 291.183 235.858 292.065 240.002 293.788C244.147 295.511 247.907 298.04 251.066 301.228L257.091 307.295C260.556 310.798 263.219 315.013 264.895 319.646C266.572 324.28 267.222 329.223 266.802 334.132C271.629 333.752 276.483 334.399 281.042 336.03C285.602 337.661 289.764 340.24 293.255 343.596L299.109 349.569C299.16 349.612 299.228 349.629 299.271 349.671C300.848 351.26 302.724 352.521 304.79 353.382C306.857 354.242 309.073 354.685 311.311 354.685C313.55 354.685 315.766 354.242 317.833 353.382C319.899 352.521 321.775 351.26 323.352 349.671L329.385 343.604C332.584 340.378 334.379 336.018 334.379 331.474C334.379 326.93 332.584 322.571 329.385 319.344L232.95 222.448C232.159 221.653 231.532 220.711 231.105 219.674C230.678 218.637 230.46 217.527 230.462 216.405C230.464 215.284 230.687 214.174 231.119 213.139C231.55 212.104 232.181 211.164 232.975 210.373C233.77 209.582 234.713 208.955 235.749 208.528C236.786 208.101 237.897 207.883 239.018 207.885C241.283 207.89 243.452 208.794 245.05 210.399L341.528 307.295C344.765 310.402 349.078 312.136 353.564 312.136C358.051 312.136 362.364 310.402 365.601 307.295L371.625 301.236C374.83 298.007 376.628 293.643 376.628 289.093C376.628 284.544 374.83 280.179 371.625 276.95L275.156 180.063C274.365 179.268 273.738 178.326 273.311 177.289C272.884 176.252 272.665 175.141 272.668 174.02C272.67 172.899 272.893 171.789 273.325 170.754C273.756 169.719 274.387 168.779 275.181 167.988C275.976 167.197 276.918 166.57 277.955 166.143C278.992 165.716 280.103 165.498 281.224 165.5C283.488 165.505 285.658 166.409 287.256 168.014Z" fill="white"/>
<path d="M434.635 237.962L437.955 234.625C463.523 208.851 477.87 174.017 477.87 137.712C477.87 101.407 463.523 66.5731 437.955 40.799C425.318 28.0885 410.294 18.0016 393.745 11.1186C377.197 4.23556 359.451 0.692139 341.528 0.692139C323.605 0.692139 305.859 4.23556 289.311 11.1186C272.762 18.0016 257.738 28.0885 245.101 40.799L142.573 143.737C140.967 145.354 140.066 147.541 140.066 149.821C140.066 152.1 140.967 154.287 142.573 155.905C149.053 162.13 157.69 165.607 166.676 165.607C175.661 165.607 184.298 162.13 190.778 155.905L257.099 89.3451C261.969 84.6723 268.458 82.0631 275.207 82.0631C281.956 82.0631 288.444 84.6723 293.315 89.3451L425.94 222.533C430.155 226.814 433.156 232.139 434.635 237.962Z" fill="white"/>
</svg>
