<svg width="30" height="30" viewBox="0 0 30 30" fill="none" xmlns="http://www.w3.org/2000/svg">
<g clip-path="url(#clip0_906_2014)">
<path d="M28.9013 11.3364L19.42 1.85389C18.2466 0.683875 16.6571 0.0268555 15 0.0268555C13.3429 0.0268555 11.7535 0.683875 10.58 1.85389L1.09877 11.3364C0.749297 11.6836 0.472227 12.0968 0.283618 12.5519C0.095009 13.007 -0.001388 13.495 1.50994e-05 13.9876V26.2589C1.50994e-05 27.2535 0.395103 28.2073 1.09836 28.9105C1.80163 29.6138 2.75545 30.0089 3.75002 30.0089H26.25C27.2446 30.0089 28.1984 29.6138 28.9017 28.9105C29.6049 28.2073 30 27.2535 30 26.2589V13.9876C30.0014 13.495 29.905 13.007 29.7164 12.5519C29.5278 12.0968 29.2507 11.6836 28.9013 11.3364ZM18.75 27.5089H11.25V22.5914C11.25 21.5968 11.6451 20.643 12.3484 19.9397C13.0516 19.2365 14.0055 18.8414 15 18.8414C15.9946 18.8414 16.9484 19.2365 17.6517 19.9397C18.3549 20.643 18.75 21.5968 18.75 22.5914V27.5089ZM27.5 26.2589C27.5 26.5904 27.3683 26.9084 27.1339 27.1428C26.8995 27.3772 26.5815 27.5089 26.25 27.5089H21.25V22.5914C21.25 20.9338 20.5915 19.3441 19.4194 18.172C18.2473 16.9999 16.6576 16.3414 15 16.3414C13.3424 16.3414 11.7527 16.9999 10.5806 18.172C9.4085 19.3441 8.75002 20.9338 8.75002 22.5914V27.5089H3.75002C3.41849 27.5089 3.10055 27.3772 2.86613 27.1428C2.63171 26.9084 2.50002 26.5904 2.50002 26.2589V13.9876C2.50117 13.6564 2.63275 13.3389 2.86627 13.1039L12.3475 3.62514C13.0521 2.9238 14.0058 2.53007 15 2.53007C15.9942 2.53007 16.9479 2.9238 17.6525 3.62514L27.1338 13.1076C27.3664 13.3417 27.4979 13.6577 27.5 13.9876V26.2589Z" fill="white"/>
</g>
<defs>
<clipPath id="clip0_906_2014">
<rect width="30" height="30" fill="white"/>
</clipPath>
</defs>
</svg>
