<svg width="448" height="348" viewBox="0 0 448 348" fill="none" xmlns="http://www.w3.org/2000/svg">
<path d="M227.008 211.032C222.405 211.37 217.781 210.756 213.426 209.226C209.07 207.697 205.077 205.286 201.696 202.144C-2.24001 352.416 -28.576 222.128 158.96 23.8399L168.808 13.8719C170.302 12.3634 171.135 10.3232 171.124 8.2003C171.114 6.07739 170.261 4.0456 168.752 2.5519C167.243 1.0582 165.203 0.224948 163.08 0.23545C160.957 0.245952 158.926 1.09935 157.432 2.6079C152.104 7.9279 146.448 13.7039 140.952 19.0879C-126.352 290.688 20.576 479.288 298.184 234.072L281.432 207.456L227.008 211.032Z" fill="white"/>
<path d="M439.56 129.384L386.4 95.9198C386.098 95.7303 385.854 95.4614 385.694 95.1425C385.535 94.8236 385.466 94.4671 385.496 94.1118L389.688 31.3758C389.864 27.8798 389.024 24.4075 387.27 21.3784C385.516 18.3493 382.922 15.8928 379.802 14.3057C376.682 12.7187 373.169 12.0689 369.688 12.4348C366.207 12.8007 362.906 14.1667 360.184 16.3678L311.944 56.5678C311.659 56.7873 311.325 56.9335 310.971 56.9935C310.616 57.0535 310.253 57.0254 309.912 56.9118L251.592 33.5838C248.315 32.2567 244.719 31.9242 241.254 32.6278C237.789 33.3313 234.608 35.0398 232.108 37.5399C229.608 40.04 227.899 43.2211 227.196 46.6861C226.492 50.1511 226.825 53.7466 228.152 57.0238L251.416 115.288C251.557 115.631 251.605 116.005 251.556 116.373C251.507 116.741 251.362 117.089 251.136 117.384L210.936 165.624C208.692 168.334 207.291 171.642 206.907 175.14C206.523 178.637 207.173 182.171 208.776 185.303C210.378 188.435 212.864 191.029 215.925 192.764C218.987 194.499 222.489 195.298 226 195.064L288.68 190.936C289.035 190.906 289.392 190.975 289.711 191.134C290.029 191.294 290.298 191.538 290.488 191.84L323.952 245.008C325.799 248.024 328.506 250.417 331.726 251.88C334.946 253.343 338.53 253.808 342.016 253.216C345.514 252.721 348.781 251.181 351.388 248.797C353.995 246.412 355.82 243.296 356.624 239.856L372.08 178.984C372.161 178.625 372.343 178.296 372.603 178.035C372.864 177.775 373.193 177.593 373.552 177.512L434.416 162.056C437.834 161.196 440.924 159.351 443.302 156.749C445.68 154.147 447.24 150.904 447.789 147.422C448.338 143.941 447.852 140.375 446.39 137.167C444.928 133.96 442.548 131.253 439.56 129.384Z" fill="white"/>
</svg>
