<svg width="30" height="30" viewBox="0 0 30 30" fill="none" xmlns="http://www.w3.org/2000/svg">
<path d="M17.0555 0.522452C16.7705 0.284952 16.3943 0.187452 16.0293 0.253702C12.278 0.947452 8.8368 3.1312 6.5868 6.2462H6.24805C2.8018 6.24745 -0.00195312 9.0512 -0.00195312 12.4975V17.5037C-0.00195312 20.95 2.8018 23.7537 6.24805 23.7537H6.5868C8.8393 26.8725 12.2805 29.0575 16.0293 29.7462C16.1043 29.76 16.1805 29.7675 16.2555 29.7675C16.5455 29.7675 16.8293 29.6662 17.0555 29.4787C17.3405 29.2412 17.5055 28.8887 17.5055 28.5175V1.4837C17.5055 1.11245 17.3418 0.759952 17.0555 0.522452ZM15.0055 26.9187C12.468 26.1112 10.1918 24.4762 8.6143 22.29L8.24055 21.7712C8.00555 21.4462 7.6293 21.2525 7.2268 21.2525H6.2493C4.1818 21.2525 2.4993 19.57 2.4993 17.5025V12.4962C2.4993 10.4287 4.1818 8.7462 6.2493 8.7462H7.2268C7.62805 8.7462 8.00555 8.5537 8.24055 8.22745L8.6143 7.7087C10.1905 5.52495 12.468 3.8912 15.0068 3.0812V26.9162L15.0055 26.9187ZM29.6668 17.8662C30.1555 18.355 30.1555 19.145 29.6668 19.6337C29.423 19.8775 29.103 20 28.783 20C28.463 20 28.143 19.8775 27.8993 19.6337L25.033 16.7675L22.1668 19.6337C21.923 19.8775 21.603 20 21.283 20C20.963 20 20.643 19.8775 20.3993 19.6337C19.9105 19.145 19.9105 18.355 20.3993 17.8662L23.2655 15L20.3993 12.1337C19.9105 11.645 19.9105 10.855 20.3993 10.3662C20.888 9.87745 21.678 9.87745 22.1668 10.3662L25.033 13.2325L27.8993 10.3662C28.388 9.87745 29.178 9.87745 29.6668 10.3662C30.1555 10.855 30.1555 11.645 29.6668 12.1337L26.8005 15L29.6668 17.8662Z" fill="white"/>
</svg>
