<svg width="30" height="30" viewBox="0 0 30 30" fill="none" xmlns="http://www.w3.org/2000/svg">
<g clip-path="url(#clip0_786_1619)">
<path d="M26.0081 5.36241C25.892 5.24628 25.7541 5.15415 25.6024 5.0913C25.4506 5.02844 25.288 4.99609 25.1237 4.99609C24.9595 4.99609 24.7969 5.02844 24.6451 5.0913C24.4934 5.15415 24.3555 5.24628 24.2394 5.36241C24.1232 5.47855 24.0311 5.61643 23.9682 5.76817C23.9054 5.91991 23.873 6.08255 23.873 6.24679C23.873 6.41103 23.9054 6.57367 23.9682 6.72541C24.0311 6.87715 24.1232 7.01503 24.2394 7.13116C26.3231 9.21979 27.4933 12.0496 27.4933 14.9999C27.4933 17.9502 26.3231 20.78 24.2394 22.8687C24.0048 23.1032 23.873 23.4213 23.873 23.753C23.873 24.0847 24.0048 24.4029 24.2394 24.6374C24.4739 24.872 24.792 25.0037 25.1237 25.0037C25.4554 25.0037 25.7736 24.872 26.0081 24.6374C28.5603 22.0794 29.9937 18.6134 29.9937 14.9999C29.9937 11.3864 28.5603 7.92045 26.0081 5.36241Z" fill="white"/>
<path d="M22.6248 9.11365C22.5086 8.9971 22.3707 8.90457 22.2188 8.84134C22.0669 8.7781 21.904 8.74541 21.7395 8.74512C21.575 8.74483 21.412 8.77695 21.2599 8.83964C21.1077 8.90234 20.9695 8.99439 20.8529 9.11052C20.7364 9.22666 20.6438 9.36462 20.5806 9.51652C20.5174 9.66841 20.4847 9.83128 20.4844 9.99581C20.4841 10.1603 20.5162 10.3233 20.5789 10.4754C20.6416 10.6276 20.7336 10.7659 20.8498 10.8824C21.9407 11.975 22.5535 13.4559 22.5535 14.9999C22.5535 16.5439 21.9407 18.0248 20.8498 19.1174C20.7336 19.2339 20.6416 19.3722 20.5789 19.5243C20.5162 19.6765 20.4841 19.8394 20.4844 20.004C20.4847 20.1685 20.5174 20.3314 20.5806 20.4833C20.6438 20.6352 20.7364 20.7731 20.8529 20.8893C21.0883 21.1238 21.4072 21.2553 21.7395 21.2547C21.904 21.2544 22.0669 21.2217 22.2188 21.1585C22.3707 21.0952 22.5086 21.0027 22.6248 20.8861C24.1839 19.324 25.0596 17.207 25.0596 14.9999C25.0596 12.7928 24.1839 10.6758 22.6248 9.11365Z" fill="white"/>
<path d="M17.275 0.250139C13.4741 0.964224 10.0934 3.11245 7.8325 6.25014H6.25C4.59321 6.25278 3.00503 6.91211 1.8335 8.08364C0.661974 9.25517 0.00264452 10.8433 0 12.5001L0 17.5001C0.00264452 19.1569 0.661974 20.7451 1.8335 21.9166C3.00503 23.0882 4.59321 23.7475 6.25 23.7501H7.8325C10.0938 26.8874 13.4744 29.0354 17.275 29.7501C17.3495 29.7647 17.4253 29.7718 17.5013 29.7714C17.8328 29.7714 18.1507 29.6397 18.3851 29.4053C18.6196 29.1709 18.7513 28.8529 18.7513 28.5214V1.48264C18.7517 1.29906 18.7117 1.11763 18.6342 0.951242C18.5566 0.784858 18.4433 0.637605 18.3024 0.519949C18.1614 0.402293 17.9963 0.317122 17.8188 0.27049C17.6412 0.223858 17.4556 0.21691 17.275 0.250139ZM16.25 26.9189C13.493 26.04 11.1224 24.2392 9.53625 21.8189C9.42292 21.6445 9.2679 21.5012 9.08521 21.4019C8.90252 21.3026 8.69794 21.2504 8.49 21.2501H6.25C5.25544 21.2501 4.30161 20.8551 3.59835 20.1518C2.89509 19.4485 2.5 18.4947 2.5 17.5001V12.5001C2.5 11.5056 2.89509 10.5518 3.59835 9.84849C4.30161 9.14523 5.25544 8.75014 6.25 8.75014H8.5C8.70771 8.75011 8.91214 8.69833 9.09481 8.59946C9.27748 8.5006 9.43263 8.35777 9.54625 8.18389C11.1291 5.76418 13.4961 3.96257 16.25 3.08139V26.9189Z" fill="white"/>
</g>
<defs>
<clipPath id="clip0_786_1619">
<rect width="30" height="30" fill="white"/>
</clipPath>
</defs>
</svg>
