<svg width="446" height="488" viewBox="0 0 446 488" fill="none" xmlns="http://www.w3.org/2000/svg">
<path d="M80.2288 269.953C171.006 276.563 224.48 337.414 234.786 461.103C240.137 348.832 289.335 282.707 389.349 269.958C298.571 263.343 245.098 202.492 234.786 78.8033C229.441 191.075 180.238 257.199 80.2288 269.953ZM389.349 113.082C391.289 80.1088 409.163 60.6887 445.49 56.946C412.517 55.0004 393.091 37.1316 389.349 0.800049C387.403 33.7728 369.534 53.1981 333.203 56.946C366.176 58.8864 385.601 76.7552 389.349 113.082ZM0.510376 121.99C33.4832 123.936 52.9085 141.805 56.6512 178.131C58.5968 145.158 76.4656 125.733 112.797 121.99C79.8243 120.045 60.399 102.176 56.6512 65.8496C54.7056 98.8224 36.8368 118.248 0.510376 121.99ZM56.6512 374.918C54.7107 407.891 36.8368 427.311 0.510376 431.059C33.4832 433 52.9085 450.874 56.6563 487.2C58.5968 454.227 76.4707 434.802 112.797 431.059C79.8243 429.114 60.399 411.245 56.6563 374.913L56.6512 374.918Z" fill="white"/>
</svg>
