<svg width="13" height="25" viewBox="0 0 13 25" fill="none" xmlns="http://www.w3.org/2000/svg">
<path d="M11.4099 8.71486L3.09144 0.519222C2.75188 0.186663 2.29255 0 1.81376 0C1.33497 0 0.875638 0.186663 0.536079 0.519222C0.366214 0.685211 0.231388 0.882694 0.13938 1.10028C0.0473711 1.31786 0 1.55124 0 1.78696C0 2.02267 0.0473711 2.25605 0.13938 2.47363C0.231388 2.69122 0.366214 2.8887 0.536079 3.05469L8.87271 11.2325C9.04258 11.3985 9.1774 11.5959 9.26941 11.8135C9.36142 12.0311 9.40879 12.2645 9.40879 12.5002C9.40879 12.7359 9.36142 12.9693 9.26941 13.1869C9.1774 13.4045 9.04258 13.6019 8.87271 13.7679L0.536079 21.9457C0.194814 22.2796 0.00213837 22.7333 0.000439002 23.2071C-0.00126037 23.681 0.188157 24.136 0.527019 24.4723C0.86588 24.8085 1.32643 24.9983 1.80735 25C2.28827 25.0017 2.75017 24.815 3.09144 24.4812L11.4099 16.2856C12.4281 15.2812 13 13.9197 13 12.5002C13 11.0807 12.4281 9.71923 11.4099 8.71486Z" fill="white"/>
</svg>
