<svg width="29" height="29" viewBox="0 0 29 29" fill="none" xmlns="http://www.w3.org/2000/svg">
<path d="M20.1876 10.521L16.2086 14.5L20.1876 18.479L18.479 20.1876L14.5 16.2086L10.521 20.1876L8.81238 18.479L12.7914 14.5L8.81238 10.521L10.521 8.81238L14.5 12.7914L18.479 8.81238L20.1876 10.521ZM29 14.5C29 22.4955 22.4955 29 14.5 29C6.50446 29 0 22.4955 0 14.5C0 6.50446 6.50446 0 14.5 0C22.4955 0 29 6.50446 29 14.5ZM26.5833 14.5C26.5833 7.83725 21.1628 2.41667 14.5 2.41667C7.83725 2.41667 2.41667 7.83725 2.41667 14.5C2.41667 21.1628 7.83725 26.5833 14.5 26.5833C21.1628 26.5833 26.5833 21.1628 26.5833 14.5Z" fill="#4F70CF"/>
</svg>
