<svg width="11" height="6" viewBox="0 0 11 6" fill="none" xmlns="http://www.w3.org/2000/svg">
<path d="M10.2528 0.815481C10.187 0.74909 10.1086 0.696394 10.0223 0.660433C9.936 0.624471 9.84342 0.605957 9.74991 0.605957C9.6564 0.605957 9.56382 0.624471 9.4775 0.660433C9.39118 0.696394 9.31284 0.74909 9.24699 0.815481L6.00283 4.05965C5.93698 4.12604 5.85864 4.17873 5.77232 4.2147C5.686 4.25066 5.59342 4.26917 5.49991 4.26917C5.4064 4.26917 5.31382 4.25066 5.2275 4.2147C5.14118 4.17873 5.06284 4.12604 4.99699 4.05965L1.75283 0.815481C1.68698 0.74909 1.60864 0.696394 1.52232 0.660433C1.436 0.624471 1.34342 0.605957 1.24991 0.605957C1.1564 0.605957 1.06382 0.624471 0.977502 0.660433C0.891185 0.696394 0.812842 0.74909 0.746994 0.815481C0.615066 0.948196 0.541016 1.12772 0.541016 1.31486C0.541016 1.50199 0.615066 1.68152 0.746994 1.81423L3.99824 5.06548C4.39668 5.46342 4.93678 5.68694 5.49991 5.68694C6.06304 5.68694 6.60314 5.46342 7.00158 5.06548L10.2528 1.81423C10.3848 1.68152 10.4588 1.50199 10.4588 1.31486C10.4588 1.12772 10.3848 0.948196 10.2528 0.815481Z" fill="white"/>
</svg>
