<svg width="30" height="30" viewBox="0 0 30 30" fill="none" xmlns="http://www.w3.org/2000/svg">
<g clip-path="url(#clip0_281_2105)">
<path d="M15 0C12.0333 0 9.13319 0.879735 6.66645 2.52796C4.19972 4.17618 2.27713 6.51886 1.14181 9.25975C0.00649929 12.0006 -0.290551 15.0166 0.288228 17.9264C0.867006 20.8361 2.29562 23.5088 4.3934 25.6066C6.49119 27.7044 9.16394 29.133 12.0737 29.7118C14.9834 30.2906 17.9994 29.9935 20.7403 28.8582C23.4811 27.7229 25.8238 25.8003 27.472 23.3336C29.1203 20.8668 30 17.9667 30 15C29.9957 11.0231 28.414 7.21026 25.6019 4.39815C22.7897 1.58604 18.9769 0.00430135 15 0ZM15 27.5C12.5277 27.5 10.111 26.7669 8.05538 25.3934C5.99976 24.0199 4.39761 22.0676 3.45151 19.7835C2.50542 17.4995 2.25788 14.9861 2.74019 12.5614C3.22251 10.1366 4.41302 7.90932 6.16117 6.16117C7.90933 4.41301 10.1366 3.2225 12.5614 2.74018C14.9861 2.25787 17.4995 2.50541 19.7836 3.45151C22.0676 4.3976 24.0199 5.99976 25.3934 8.05537C26.7669 10.111 27.5 12.5277 27.5 15C27.4964 18.3141 26.1782 21.4914 23.8348 23.8348C21.4914 26.1782 18.3141 27.4964 15 27.5Z" fill="white"></path>
<path d="M15 12.5H13.75C13.4185 12.5 13.1005 12.6317 12.8661 12.8661C12.6317 13.1005 12.5 13.4185 12.5 13.75C12.5 14.0815 12.6317 14.3995 12.8661 14.6339C13.1005 14.8683 13.4185 15 13.75 15H15V22.5C15 22.8315 15.1317 23.1495 15.3661 23.3839C15.6005 23.6183 15.9185 23.75 16.25 23.75C16.5815 23.75 16.8995 23.6183 17.1339 23.3839C17.3683 23.1495 17.5 22.8315 17.5 22.5V15C17.5 14.337 17.2366 13.7011 16.7678 13.2322C16.2989 12.7634 15.663 12.5 15 12.5Z" fill="white"></path>
<path d="M15 10C16.0355 10 16.875 9.16053 16.875 8.125C16.875 7.08947 16.0355 6.25 15 6.25C13.9645 6.25 13.125 7.08947 13.125 8.125C13.125 9.16053 13.9645 10 15 10Z" fill="white"></path>
</g>
<defs>
<clipPath id="clip0_281_2105">
<rect width="30" height="30" fill="white"></rect>
</clipPath>
</defs>
</svg>