<svg width="30" height="30" viewBox="0 0 30 30" fill="none" xmlns="http://www.w3.org/2000/svg">
<path d="M16.875 15.0003C16.875 16.0353 16.035 16.8753 15 16.8753C13.965 16.8753 13.125 16.0353 13.125 15.0003C13.125 13.9653 13.965 13.1253 15 13.1253C16.035 13.1253 16.875 13.9653 16.875 15.0003ZM24.8537 20.739C25.31 24.2603 24.54 26.9228 22.66 28.1065C21.9837 28.5328 21.1987 28.749 20.3425 28.749C19.8962 28.749 19.4312 28.6903 18.9525 28.5715C17.685 28.2603 16.34 27.5465 14.9963 26.509C13.0837 27.9878 11.2425 28.7515 9.64375 28.7515C8.8 28.7515 8.0225 28.539 7.33875 28.1065C5.39125 26.879 4.68125 24.1415 5.13 20.704C1.87125 19.3128 0 17.2653 0 15.0003C0 12.6465 1.9625 10.6153 5.14625 9.26029C4.68875 5.73904 5.46 3.07654 7.33875 1.89279C8.36625 1.24279 9.64875 1.08404 11.045 1.42779C12.3163 1.74029 13.6663 2.45779 15.015 3.50154C17.9288 1.25404 20.685 0.647794 22.66 1.89279C24.6087 3.12029 25.3175 5.85779 24.8688 9.29779C28.1287 10.6878 29.9988 12.7353 29.9988 15.0003C29.9988 17.354 28.0375 19.3853 24.8537 20.739ZM17.7787 19.8603C18.2675 19.1665 18.7375 18.4378 19.175 17.6853C19.7 16.7815 20.1512 15.884 20.5475 15.0015C20.14 14.099 19.6863 13.1965 19.175 12.3153C18.7188 11.529 18.2463 10.8165 17.7675 10.1378C16.8625 10.049 15.9337 10.0003 14.9987 10.0003C14.035 10.0003 13.1087 10.0515 12.2188 10.1403C11.7312 10.834 11.26 11.5628 10.8225 12.3153C10.2987 13.2178 9.84625 14.1153 9.45 14.9965C9.86 15.904 10.3125 16.8078 10.8225 17.6853C11.2788 18.4715 11.7525 19.184 12.23 19.8628C13.135 19.9503 14.0638 20.0003 14.9975 20.0003C15.9613 20.0003 16.8888 19.949 17.7787 19.8603ZM16.8988 5.20154C18.4813 6.79154 20.0087 8.77154 21.3375 11.0603C21.4812 11.3065 21.6075 11.5603 21.7438 11.809C22.8875 7.94904 22.6825 4.86154 21.3275 4.00779C20.3825 3.41154 18.7375 3.87529 16.8988 5.20154ZM7.56125 8.42904C9.73 7.83654 12.2537 7.50029 15 7.50029C15.225 7.50029 15.4475 7.51279 15.6725 7.51779C13.725 5.41904 11.8275 4.19529 10.45 3.85654C9.7175 3.67654 9.12 3.72654 8.67375 4.00904C7.75 4.59029 7.35875 6.23779 7.5625 8.43029L7.56125 8.42904ZM5.63125 18.2003C5.94375 17.024 6.3725 15.7978 6.9125 14.5428C6.91375 14.5378 6.91625 14.534 6.91875 14.529C7.41 13.3878 7.985 12.2265 8.6625 11.0603C8.73625 10.9328 8.8225 10.819 8.89875 10.6928C5.01375 11.6328 2.5 13.3815 2.5 15.0003C2.5 16.0965 3.6775 17.2753 5.63125 18.2003ZM13.0988 24.7965C11.5175 23.2065 9.99 21.2278 8.6625 18.9403C8.51875 18.694 8.3925 18.4403 8.25625 18.1903C7.1125 22.0503 7.3175 25.1378 8.6725 25.9928C9.62 26.5903 11.26 26.1253 13.0988 24.7965ZM22.4375 21.5715C20.2688 22.164 17.745 22.5003 14.9987 22.5003C14.7737 22.5003 14.5512 22.4878 14.3275 22.4828C16.275 24.5815 18.1725 25.8065 19.55 26.1453C20.2838 26.324 20.88 26.2728 21.3263 25.9928C22.2488 25.4115 22.6412 23.764 22.4362 21.5715H22.4375ZM27.4988 15.0003C27.4988 13.9053 26.32 12.7265 24.3675 11.8003C23.77 14.0503 22.7612 16.4853 21.3375 18.9403C21.2638 19.0665 21.1775 19.1815 21.1025 19.3065C24.9875 18.3665 27.5 16.6178 27.5 14.999L27.4988 15.0003Z" fill="white"></path>
</svg>