<svg width="18" height="31" viewBox="0 0 18 31" fill="none" xmlns="http://www.w3.org/2000/svg">
<path d="M17.0551 0.827521C16.7701 0.590021 16.3938 0.492521 16.0288 0.558771C12.2776 1.25252 8.83631 3.43627 6.58631 6.55127H6.24756C2.80131 6.55252 -0.00244141 9.35627 -0.00244141 12.8025V17.8088C-0.00244141 21.255 2.80131 24.0588 6.24756 24.0588H6.58631C8.83881 27.1775 12.2801 29.3625 16.0288 30.0513C16.1038 30.065 16.1801 30.0725 16.2551 30.0725C16.5451 30.0725 16.8288 29.9713 17.0551 29.7838C17.3401 29.5463 17.5051 29.1938 17.5051 28.8225V1.78877C17.5051 1.41752 17.3413 1.06502 17.0551 0.827521ZM15.0051 27.2238C12.4676 26.4163 10.1913 24.7813 8.61381 22.595L8.24006 22.0763C8.00506 21.7513 7.62881 21.5575 7.22631 21.5575H6.24881C4.18131 21.5575 2.49881 19.875 2.49881 17.8075V12.8013C2.49881 10.7338 4.18131 9.05127 6.24881 9.05127H7.22631C7.62756 9.05127 8.00506 8.85877 8.24006 8.53252L8.61381 8.01377C10.1901 5.83002 12.4676 4.19627 15.0063 3.38627V27.2213L15.0051 27.2238Z" fill="white"/>
</svg>
