<svg width="30" height="30" viewBox="0 0 30 30" fill="none" xmlns="http://www.w3.org/2000/svg">
<path d="M30.0229 22.7887C30.0229 23.7162 29.6816 24.6075 29.0579 25.3012L24.8191 30H21.4529L27.2016 23.6275C27.4091 23.3962 27.5241 23.0987 27.5241 22.7887V7.49996C27.5241 6.81121 26.9641 6.24996 26.2741 6.24996C25.5841 6.24996 24.9991 6.81121 24.9991 7.49996V17.5C24.9991 18.355 24.7266 19.2112 24.1454 19.9025L20.9241 23.2575L19.1229 21.525L22.2879 18.2325C22.4504 18.0362 22.5279 17.7712 22.5241 17.5V17.4462C22.5079 17.17 22.4066 16.8875 22.2054 16.665C21.9841 16.4175 21.6791 16.2712 21.3466 16.2525C21.0204 16.235 20.6954 16.3462 20.4479 16.5675L16.8116 19.9137C17.2679 20.5475 17.5241 21.315 17.5241 22.1075V30H15.0241V22.1075C15.0241 21.7587 14.8766 21.4237 14.6204 21.1887L9.58664 16.5575C9.08789 16.1112 8.29914 16.155 7.84164 16.665C7.43039 17.1237 7.41914 17.825 7.81539 18.2962L11.0291 21.6337L9.22789 23.3675L5.95789 19.9662C5.34789 19.2412 5.00664 18.3662 5.00039 17.5L5.02414 7.49996C5.02414 6.81121 4.46289 6.24996 3.77414 6.24996C3.08539 6.24996 2.52414 6.81121 2.52414 7.49996V22.7887C2.52414 23.0987 2.63914 23.3962 2.84664 23.6275L8.59539 30H5.22914L0.990391 25.3012C0.366641 24.6075 0.0253906 23.7162 0.0253906 22.7887V7.49996C0.0253906 5.43246 1.70789 3.74996 3.77539 3.74996C5.84289 3.74996 7.52539 5.43246 7.52539 7.49996V13.9812C8.77414 13.5412 10.2141 13.76 11.2704 14.705L15.0266 18.16L18.7704 14.715C19.5254 14.0362 20.4716 13.7025 21.4866 13.7537C21.8491 13.7737 22.1941 13.8612 22.5266 13.9787V7.49871C22.5266 5.43121 24.2091 3.74871 26.2766 3.74871C28.3441 3.74871 30.0016 5.43121 30.0016 7.49871L30.0254 22.7875L30.0229 22.7887ZM14.3766 8.74996C15.0391 8.74996 15.7016 8.49871 16.2016 7.99746L22.4941 1.80496L20.7416 0.0224609L14.4416 6.22121C14.4041 6.25746 14.3441 6.25746 14.3066 6.22121L10.4929 2.40746L8.72539 4.17496L12.5391 7.98871C13.0454 8.49621 13.7116 8.74996 14.3766 8.74996Z" fill="white"></path>
</svg>