<svg width="25" height="25" viewBox="0 0 25 25" fill="none" xmlns="http://www.w3.org/2000/svg">
<path d="M23.9583 9.35312C23.6821 9.35312 23.4171 9.46287 23.2218 9.65822C23.0264 9.85357 22.9167 10.1185 22.9167 10.3948V15.625H18.75C17.9212 15.625 17.1263 15.9542 16.5403 16.5403C15.9542 17.1263 15.625 17.9212 15.625 18.75V22.9167H5.20833C4.37953 22.9167 3.58468 22.5874 2.99862 22.0014C2.41257 21.4153 2.08333 20.6205 2.08333 19.7917V5.20833C2.08333 4.37953 2.41257 3.58468 2.99862 2.99862C3.58468 2.41257 4.37953 2.08333 5.20833 2.08333H14.6271C14.9033 2.08333 15.1683 1.97359 15.3637 1.77824C15.559 1.58289 15.6687 1.31793 15.6687 1.04167C15.6687 0.765399 15.559 0.500447 15.3637 0.305097C15.1683 0.109747 14.9033 0 14.6271 0L5.20833 0C3.82751 0.00165402 2.50371 0.550919 1.52731 1.52731C0.550919 2.50371 0.00165402 3.8275 0 5.20833L0 19.7917C0.00165402 21.1725 0.550919 22.4963 1.52731 23.4727C2.50371 24.4491 3.82751 24.9983 5.20833 25H17.024C17.7082 25.002 18.3861 24.8682 19.0184 24.6064C19.6506 24.3446 20.2247 23.9601 20.7073 23.475L23.474 20.7062C23.9591 20.2238 24.3438 19.65 24.6057 19.0179C24.8677 18.3859 25.0017 17.7081 25 17.024V10.3948C25 10.1185 24.8903 9.85357 24.6949 9.65822C24.4996 9.46287 24.2346 9.35312 23.9583 9.35312ZM19.2344 22.0021C18.8156 22.4198 18.2861 22.709 17.7083 22.8354V18.75C17.7083 18.4737 17.8181 18.2088 18.0134 18.0134C18.2088 17.8181 18.4737 17.7083 18.75 17.7083H22.8385C22.7097 18.2849 22.4209 18.8135 22.0052 19.2333L19.2344 22.0021Z" fill="white"/>
<path d="M19.434 0.968662L6.734 13.6687C6.24895 14.1511 5.8644 14.725 5.60263 15.357C5.34086 15.9891 5.20707 16.6668 5.209 17.351V18.7499C5.209 19.0262 5.31875 19.2911 5.5141 19.4865C5.70945 19.6818 5.9744 19.7916 6.25067 19.7916H7.64963C8.33376 19.7935 9.01147 19.6597 9.64354 19.398C10.2756 19.1362 10.8495 18.7516 11.3319 18.2666L24.0319 5.56658C24.6407 4.95634 24.9825 4.12957 24.9825 3.26762C24.9825 2.40567 24.6407 1.5789 24.0319 0.968662C23.4128 0.376885 22.5894 0.0466309 21.733 0.0466309C20.8765 0.0466309 20.0531 0.376885 19.434 0.968662ZM22.559 4.09366L9.859 16.7937C9.27164 17.3774 8.47776 17.7061 7.64963 17.7082H7.29234V17.351C7.29451 16.5228 7.62314 15.7289 8.20692 15.1416L20.9069 2.44158C21.1294 2.22903 21.4253 2.11043 21.733 2.11043C22.0407 2.11043 22.3365 2.22903 22.559 2.44158C22.7777 2.66087 22.9005 2.95792 22.9005 3.26762C22.9005 3.57732 22.7777 3.87438 22.559 4.09366Z" fill="white"/>
</svg>
