<svg width="101" height="101" viewBox="0 0 101 101" fill="none" xmlns="http://www.w3.org/2000/svg">
<path d="M3.26633 47.0225H42.8487C44.5737 47.0225 45.9736 45.6225 45.9736 43.8975C45.9736 42.1725 44.5737 40.7725 42.8487 40.7725H3.26633C1.54139 40.7725 0.14143 42.1725 0.14143 43.8975C0.14143 45.6225 1.54139 47.0225 3.26633 47.0225Z" fill="white"/>
<path d="M18.8908 62.6477C19.3012 62.6486 19.7078 62.5681 20.0869 62.4108C20.4661 62.2535 20.8102 62.0225 21.0995 61.7313C22.3202 60.51 22.3202 58.5309 21.0995 57.3102L7.68271 43.8938L21.0995 30.4768C22.3202 29.2561 22.3202 27.277 21.0995 26.0563C19.878 24.8348 17.899 24.8348 16.6783 26.0563L1.05381 41.6813C-0.166862 42.902 -0.166862 44.8811 1.05381 46.1018L16.6783 61.7268C16.9677 62.0192 17.3123 62.2512 17.6921 62.4093C18.0719 62.5674 18.4794 62.6485 18.8908 62.6477ZM66.8057 100.148C67.6975 100.148 68.5436 100.023 69.389 99.76L94.4637 91.4059C97.8757 90.2141 100.138 87.035 100.138 83.4813V8.4813C100.138 3.8854 96.4007 0.147705 91.805 0.147705C90.914 0.147705 90.0677 0.272705 89.2216 0.535205L64.1478 8.8895C60.7352 10.0811 58.4732 13.2604 58.4732 16.8141V91.8141C58.4732 96.41 62.21 100.148 66.8057 100.148ZM91.805 6.39771C92.9508 6.39771 93.8885 7.33521 93.8885 8.4813V83.4813C93.8885 84.3686 93.2928 85.1932 92.4428 85.4893L67.4856 93.8061C67.3063 93.8641 67.0727 93.8977 66.8057 93.8977C65.6599 93.8977 64.723 92.96 64.723 91.8141V16.8141C64.723 15.9268 65.3187 15.102 66.1686 14.8061L91.1259 6.48931C91.3052 6.4313 91.5388 6.39771 91.805 6.39771Z" fill="white"/>
<path d="M36.5989 33.4813C38.3238 33.4813 39.7238 32.0813 39.7238 30.3563V11.6063C39.7238 8.73521 42.0606 6.39771 44.9314 6.39771H91.805C93.53 6.39771 94.9299 4.9977 94.9299 3.27271C94.9299 1.54771 93.53 0.147705 91.805 0.147705H44.9314C38.6107 0.147705 33.474 5.2854 33.474 11.6063V30.3563C33.474 32.0813 34.8739 33.4813 36.5989 33.4813ZM44.9314 87.6477H61.5981C63.3231 87.6477 64.723 86.2477 64.723 84.5227C64.723 82.7977 63.3231 81.3977 61.5981 81.3977H44.9314C42.0604 81.3977 39.7238 79.06 39.7238 76.1891V57.4391C39.7238 55.7141 38.3238 54.3141 36.5989 54.3141C34.8739 54.3141 33.474 55.7141 33.474 57.4391V76.1891C33.474 82.51 38.6105 87.6477 44.9314 87.6477Z" fill="white"/>
</svg>
