<svg width="101" height="101" viewBox="0 0 101 101" fill="none" xmlns="http://www.w3.org/2000/svg">
<path d="M97.0103 47.0225H57.4279C55.7029 47.0225 54.303 45.6225 54.303 43.8975C54.303 42.1725 55.7029 40.7725 57.4279 40.7725H97.0103C98.7352 40.7725 100.135 42.1725 100.135 43.8975C100.135 45.6225 98.7352 47.0225 97.0103 47.0225Z" fill="white"/>
<path d="M81.3858 62.6477C80.9754 62.6486 80.5688 62.5681 80.1897 62.4108C79.8105 62.2535 79.4664 62.0225 79.1771 61.7313C77.9565 60.51 77.9565 58.5309 79.1771 57.3102L92.5939 43.8938L79.1771 30.4768C77.9565 29.2561 77.9565 27.277 79.1771 26.0563C80.3986 24.8348 82.3776 24.8348 83.5983 26.0563L99.2228 41.6813C100.443 42.902 100.443 44.8811 99.2228 46.1018L83.5983 61.7268C83.3089 62.0192 82.9643 62.2512 82.5845 62.4093C82.2047 62.5674 81.7972 62.6485 81.3858 62.6477ZM33.4709 100.148C32.5791 100.148 31.7331 100.023 30.8876 99.76L5.81294 91.4059C2.40093 90.2141 0.138306 87.035 0.138306 83.4813V8.4813C0.138306 3.8854 3.87589 0.147705 8.47165 0.147705C9.36264 0.147705 10.2089 0.272705 11.055 0.535205L36.1288 8.8895C39.5414 10.0811 41.8035 13.2604 41.8035 16.8141V91.8141C41.8035 96.41 38.0666 100.148 33.4709 100.148ZM8.47165 6.39771C7.32578 6.39771 6.38812 7.3352 6.38812 8.4813V83.4813C6.38812 84.3686 6.9838 85.1932 7.83378 85.4893L32.791 93.8061C32.9703 93.8641 33.2039 93.8977 33.4709 93.8977C34.6168 93.8977 35.5536 92.96 35.5536 91.8141V16.8141C35.5536 15.9268 34.958 15.102 34.108 14.8061L9.15073 6.48931C8.97144 6.4313 8.73785 6.39771 8.47165 6.39771Z" fill="white"/>
<path d="M63.6777 33.4813C61.9528 33.4813 60.5528 32.0813 60.5528 30.3563V11.6063C60.5528 8.73521 58.216 6.39771 55.3452 6.39771H8.47159C6.74664 6.39771 5.34668 4.99771 5.34668 3.27271C5.34668 1.54771 6.74664 0.147705 8.47159 0.147705H55.3452C61.6659 0.147705 66.8026 5.2854 66.8026 11.6063V30.3563C66.8026 32.0813 65.4027 33.4813 63.6777 33.4813ZM55.3452 87.6477H38.6785C36.9535 87.6477 35.5536 86.2477 35.5536 84.5227C35.5536 82.7977 36.9535 81.3977 38.6785 81.3977H55.3452C58.2162 81.3977 60.5528 79.06 60.5528 76.1891V57.4391C60.5528 55.7141 61.9528 54.3141 63.6777 54.3141C65.4027 54.3141 66.8026 55.7141 66.8026 57.4391V76.1891C66.8026 82.51 61.6661 87.6477 55.3452 87.6477Z" fill="white"/>
</svg>
