<svg width="18" height="20" viewBox="0 0 18 20" fill="none" xmlns="http://www.w3.org/2000/svg">
<path d="M12.0322 9.76028L10.1561 11.6364L12.0322 13.5125C12.3521 13.8324 12.3521 14.3495 12.0322 14.6694C11.8726 14.8289 11.6632 14.9091 11.4537 14.9091C11.2443 14.9091 11.0348 14.8289 10.8753 14.6694L8.99918 12.7933L7.12309 14.6694C6.96354 14.8289 6.75409 14.9091 6.54464 14.9091C6.33518 14.9091 6.12573 14.8289 5.96618 14.6694C5.64627 14.3495 5.64627 13.8324 5.96618 13.5125L7.84227 11.6364L5.96618 9.76028C5.64627 9.44037 5.64627 8.92328 5.96618 8.60337C6.28609 8.28346 6.80318 8.28346 7.12309 8.60337L8.99918 10.4795L10.8753 8.60337C11.1952 8.28346 11.7123 8.28346 12.0322 8.60337C12.3521 8.92328 12.3521 9.44037 12.0322 9.76028ZM17.9992 4.27273C17.9992 4.72519 17.6326 5.09091 17.181 5.09091H16.4569L15.4129 16.1135C15.2125 18.2252 13.4615 19.8182 11.34 19.8182H6.65427C4.536 19.8182 2.78509 18.2285 2.58218 16.1192L1.52182 5.09091H0.818182C0.366545 5.09091 0 4.72519 0 4.27273C0 3.82028 0.366545 3.45455 0.818182 3.45455H4.17355C4.554 1.58991 6.20673 0.181824 8.18182 0.181824H9.81818C11.7933 0.181824 13.4468 1.58991 13.8265 3.45455H17.1818C17.6335 3.45455 17.9992 3.82028 17.9992 4.27273ZM5.86718 3.45455H12.1312C11.7933 2.50219 10.8843 1.81819 9.81736 1.81819H8.181C7.11409 1.81819 6.20509 2.50219 5.86718 3.45455ZM14.8132 5.09091H3.16555L4.21118 15.9621C4.33227 17.2278 5.38282 18.1818 6.65427 18.1818H11.34C12.6131 18.1818 13.6636 17.2262 13.7839 15.958L14.8132 5.09091Z" fill="white"/>
</svg>
