<svg width="69" height="62" viewBox="0 0 69 62" fill="none" xmlns="http://www.w3.org/2000/svg">
<path d="M38.8141 30.9978C38.8141 33.3312 36.882 35.225 34.5014 35.225C32.1208 35.225 30.1888 33.3312 30.1888 30.9978C30.1888 28.6644 32.1208 26.7706 34.5014 26.7706C36.882 26.7706 38.8141 28.6644 38.8141 30.9978ZM57.166 43.9358C58.2154 51.8745 56.4444 57.8771 52.1202 60.5458C50.5647 61.5068 48.7592 61.9944 46.7897 61.9944C45.7633 61.9944 44.6937 61.8619 43.5926 61.5942C40.6772 60.8925 37.5836 59.2833 34.4928 56.9443C30.0939 60.2781 25.8588 62 22.1815 62C20.2408 62 18.4525 61.5209 16.8798 60.5458C12.4004 57.7785 10.7673 51.6068 11.7995 43.8569C4.30405 40.7203 0 36.1043 0 30.9978C0 25.6913 4.51394 21.1118 11.8369 18.057C10.7846 10.1183 12.5585 4.11574 16.8798 1.44698C19.2432 -0.0184482 22.1931 -0.37635 25.4046 0.398634C28.3286 1.10316 31.4337 2.72077 34.5359 5.0739C41.2378 0.00691512 47.5775 -1.35987 52.1202 1.44698C56.6025 4.21437 58.2327 10.3861 57.2005 18.1415C64.6988 21.2753 69 25.8914 69 30.9978C69 36.3043 64.4889 40.8838 57.166 43.9358ZM40.8928 41.9547C42.017 40.3906 43.098 38.7477 44.1043 37.0511C45.3119 35.0136 46.3498 32.9902 47.2612 31.0006C46.3239 28.966 45.2803 26.9313 44.1043 24.9445C43.0549 23.1719 41.9681 21.5656 40.867 20.0353C38.7854 19.8352 36.6492 19.7253 34.4986 19.7253C32.2818 19.7253 30.1514 19.8409 28.1043 20.041C26.983 21.605 25.8991 23.248 24.8928 24.9445C23.6881 26.9792 22.6473 29.0026 21.7359 30.9894C22.6789 33.0353 23.7197 35.0728 24.8928 37.0511C25.9422 38.8237 27.0319 40.4301 28.1302 41.9603C30.2118 42.1576 32.348 42.2703 34.4957 42.2703C36.7124 42.2703 38.8457 42.1548 40.8928 41.9547ZM38.8687 8.90655C42.5086 12.4912 46.022 16.9551 49.0783 22.1151C49.4089 22.6703 49.6993 23.2423 50.0127 23.8031C52.6434 15.1008 52.1719 8.14002 49.0553 6.21524C46.8817 4.871 43.098 5.91652 38.8687 8.90655ZM17.3916 16.1829C22.3799 14.8472 28.1848 14.0891 34.5014 14.0891C35.019 14.0891 35.5307 14.1173 36.0483 14.1285C31.5688 9.3969 27.2044 6.63796 24.036 5.87425C22.3512 5.46844 20.9769 5.58116 19.9505 6.21806C17.8257 7.52849 16.9258 11.2428 17.3945 16.1858L17.3916 16.1829ZM12.9524 38.2122C13.6712 35.5604 14.6574 32.7958 15.8994 29.9664C15.9023 29.9551 15.908 29.9467 15.9138 29.9354C17.0437 27.3624 18.3663 24.7444 19.9246 22.1151C20.0942 21.8276 20.2926 21.5712 20.468 21.2866C11.5321 23.4058 5.75024 27.3483 5.75024 30.9978C5.75024 33.4693 8.4586 36.1268 12.9524 38.2122ZM30.1284 53.0835C26.4914 49.4988 22.978 45.0377 19.9246 39.8805C19.5939 39.3254 19.3036 38.7533 18.9902 38.1897C16.3594 46.892 16.831 53.8528 19.9476 55.7804C22.1269 57.1275 25.8991 56.0791 30.1284 53.0835ZM51.6084 45.8127C46.6201 47.1485 40.8152 47.9066 34.4986 47.9066C33.981 47.9066 33.4693 47.8784 32.9546 47.8671C37.4341 52.5987 41.7985 55.3605 44.9669 56.1242C46.6546 56.5272 48.026 56.4117 49.0524 55.7804C51.1743 54.47 52.077 50.7557 51.6055 45.8127H51.6084ZM63.2498 30.9978C63.2498 28.5291 60.5385 25.8717 56.0476 23.7834C54.6733 28.856 52.3531 34.3458 49.0783 39.8805C48.9087 40.1652 48.7103 40.4244 48.5378 40.7063C57.4736 38.587 63.2526 34.6445 63.2526 30.995L63.2498 30.9978Z" fill="white"/>
</svg>
